<svg xmlns="http://www.w3.org/2000/svg" width="14.003" height="30" viewBox="30 685.579 14.003 30"><path d="M34.615 687.125c1.169-1.114 2.833-1.49 4.403-1.537 1.66-.015 3.32-.006 4.98-.005.006 1.751.007 3.503-.001 5.254-1.073-.002-2.146.003-3.219-.002-.681-.042-1.379.473-1.503 1.148-.016 1.172-.006 2.344-.005 3.516 1.574.007 3.147-.002 4.721.004-.116 1.695-.326 3.383-.573 5.064-1.39.013-2.78-.002-4.17.007-.012 5 .006 10-.01 14.999-2.064.009-4.13-.003-6.194.006-.04-5 .003-10.003-.022-15.004-1.007-.011-2.015.007-3.022-.009.004-1.681.001-3.362.002-5.042 1.006-.012 2.014.003 3.02-.007.031-1.634-.031-3.27.032-4.903.101-1.293.594-2.596 1.561-3.489Z" fill="#3d58a6" fill-rule="evenodd" data-name="Path 26"/></svg>