<svg xmlns="http://www.w3.org/2000/svg" width="24.813" height="30" viewBox="109.792 685.579 24.813 30"><path d="M125.605 709.94v-3.541c0-.752-.219-1.128-.655-1.128-.255 0-.503.12-.744.361v5.053c.241.24.489.36.744.36.436 0 .655-.368.655-1.105Zm4.15-2.752h1.489v-.767c0-.767-.249-1.15-.745-1.15s-.744.383-.744 1.15v.767Zm-12.88-6v1.579h-1.804v9.542h-1.67v-9.542h-1.759v-1.579h5.233Zm4.534 2.842v8.279h-1.511v-.903c-.587.677-1.158 1.015-1.715 1.015-.496 0-.812-.21-.947-.631-.09-.241-.135-.647-.135-1.218v-6.542h1.488v6.091c0 .361.008.556.023.586.015.226.128.338.338.338.301 0 .617-.233.948-.699v-6.316h1.511Zm5.684 2.504v3.293c0 .782-.052 1.331-.158 1.647-.18.632-.579.947-1.195.947-.526 0-1.038-.308-1.534-.924v.812h-1.511v-11.121h1.511v3.632c.481-.602.992-.902 1.534-.902.616 0 1.015.315 1.195.947.106.316.158.872.158 1.669Zm5.662 2.91v.203c0 .436-.015.759-.045.97a2.113 2.113 0 0 1-.339.902c-.406.602-1.007.902-1.804.902-.782 0-1.391-.285-1.827-.857-.316-.406-.474-1.052-.474-1.94v-2.909c0-.888.151-1.534.451-1.94.436-.572 1.038-.857 1.805-.857.767 0 1.353.285 1.759.857.316.421.474 1.067.474 1.94v1.714h-3v1.466c0 .767.256 1.15.767 1.15.361 0 .586-.195.676-.586a5.041 5.041 0 0 0 .023-.53v-.485h1.534Zm-10.173-18.587v3.519c0 .767-.241 1.151-.722 1.151s-.722-.384-.722-1.151v-3.519c0-.781.241-1.172.722-1.172s.722.391.722 1.172Zm12.023 16.083c0-2.661-.143-4.616-.429-5.864a3.082 3.082 0 0 0-.97-1.658 3.05 3.05 0 0 0-1.714-.779c-2.045-.225-5.143-.338-9.294-.338-4.135 0-7.225.113-9.27.338a3.016 3.016 0 0 0-1.726.779 3.114 3.114 0 0 0-.958 1.658c-.301 1.308-.452 3.263-.452 5.864 0 2.647.151 4.602.452 5.865.15.646.47 1.195.958 1.646a2.955 2.955 0 0 0 1.703.79c2.06.226 5.158.338 9.293.338 4.136 0 7.234-.112 9.294-.338a2.955 2.955 0 0 0 1.703-.79c.488-.451.808-1 .958-1.646.301-1.263.452-3.218.452-5.865Zm-17.031-14.684 2.031-6.677h-1.692l-1.151 4.399-1.195-4.399h-1.759l.541 1.557.519 1.556c.526 1.549.872 2.737 1.037 3.564v4.534h1.669v-4.534Zm6.519 1.827v-2.932c0-.872-.158-1.527-.473-1.963-.437-.571-1.023-.857-1.76-.857-.767 0-1.353.286-1.759.857-.316.436-.474 1.091-.474 1.963v2.932c0 .872.158 1.526.474 1.962.406.572.992.858 1.759.858.737 0 1.323-.286 1.76-.858.315-.406.473-1.06.473-1.962Zm4.083 2.707h1.511v-8.346h-1.511v6.383c-.331.467-.647.7-.947.7-.226 0-.346-.121-.361-.361-.015-.03-.023-.226-.023-.587v-6.135h-1.511v6.609c0 .556.045.97.135 1.241.166.406.489.609.97.609.541 0 1.12-.339 1.737-1.015v.902Z" fill="#3d58a6" fill-rule="evenodd" data-name="Youtube"/></svg>